<svg height="680" viewBox="0 0 620 680" width="620" xmlns="http://www.w3.org/2000/svg"><g fill="none"><path d="m177.1 248.2c-9.422226-17.65486-9.422226-38.84514 0-56.5l-47.1 28.3z" fill="#6065f3"/><path d="m14.7 174.8c-6.20876155 29.813515-6.20876155 60.586485 0 90.4l75.3-45.2z" fill="#6065f3"/><path d="m230 360v140l-160-100z" fill="#00f5bc"/><g fill="#6065f3"><path d="m130 280h-111.7c12.810773 45.098728 39.6812724 84.931528 76.7 113.7l35-8.7z"/><path d="m390 320v140l-160-100z"/><path d="m230 280 91.4 57.1 68.6-17.1v-40z"/><path d="m230 500v140l-160-100z"/><path d="m390 460v140l-160-100z"/><path d="m390 600v80l-160-40z"/><path d="m230 640v40h-160z"/><path d="m0 470c0 38.659932 31.3400675 70 70 70v-140c-38.6599325 0-70 31.340068-70 70z"/><path d="m0 610c0 38.659932 31.3400675 70 70 70v-140c-38.6599325 0-70 31.340068-70 70z"/><path d="m550.000001 280-160.000001 40 160.000001 100c38.659932-.000001 69.999999-31.340068 69.999999-70s-31.340067-69.999999-69.999999-70z"/><path d="m550 420-160 40 160 100c38.659932 0 70-31.340068 70-70s-31.340068-70-70-70z"/></g><g fill="#00f5bc" transform="translate(18)"><path d="m532 560-160 40 160 80c33.137085 0 60-26.862915 60-60s-26.862915-60-60-60z"/><path d="m432 100-60 60h-371.7c26.1-92.3 111-160 211.7-160 122.9 0 220 100 220 100zm-170-60c-16.568542 0-30 13.4314575-30 30s13.431458 30 30 30 30-13.4314575 30-30-13.431458-30-30-30z"/></g></g></svg>
